<?xml version="1.0" encoding="UTF-8" standalone="no"?>
<svg
   xmlns:dc="http://purl.org/dc/elements/1.1/"
   xmlns:cc="http://creativecommons.org/ns#"
   xmlns:rdf="http://www.w3.org/1999/02/22-rdf-syntax-ns#"
   xmlns:svg="http://www.w3.org/2000/svg"
   xmlns="http://www.w3.org/2000/svg"
   xmlns:sodipodi="http://sodipodi.sourceforge.net/DTD/sodipodi-0.dtd"
   xmlns:inkscape="http://www.inkscape.org/namespaces/inkscape"
   version="1.1"
   id="svg2"
   xml:space="preserve"
   width="377.94666"
   height="71.453331"
   viewBox="0 0 377.94666 71.453331"
   sodipodi:docname="Primær blå.eps"><metadata
     id="metadata8"><rdf:RDF><cc:Work
         rdf:about=""><dc:format>image/svg+xml</dc:format><dc:type
           rdf:resource="http://purl.org/dc/dcmitype/StillImage" /></cc:Work></rdf:RDF></metadata><defs
     id="defs6" /><sodipodi:namedview
     pagecolor="#ffffff"
     bordercolor="#666666"
     borderopacity="1"
     objecttolerance="10"
     gridtolerance="10"
     guidetolerance="10"
     inkscape:pageopacity="0"
     inkscape:pageshadow="2"
     inkscape:window-width="640"
     inkscape:window-height="480"
     id="namedview4" /><g
     id="g10"
     inkscape:groupmode="layer"
     inkscape:label="ink_ext_XXXXXX"
     transform="matrix(1.3333333,0,0,-1.3333333,0,71.453333)"><g
       id="g12"
       transform="scale(0.1)"><path
         d="m 785.391,394.824 c 0,39.707 -25.965,67.567 -64.457,67.567 H 684.578 V 327.258 h 36.356 c 38.492,0 64.457,27.219 64.457,66.926 z M 720.934,282.742 h -83.399 v 224.16 h 83.399 c 67.207,0 113.636,-48.355 113.636,-111.441 v -0.637 c 0,-63.082 -46.429,-112.082 -113.636,-112.082"
         style="fill:#051c2e;fill-opacity:1;fill-rule:nonzero;stroke:none"
         id="path14" /><path
         d="M 939.398,449.262 910.992,376.57 h 56.817 z m 64.762,-166.52 -19.551,50.278 H 894.188 L 874.641,282.742 H 826.68 l 91.64,225.762 h 43.379 l 91.641,-225.762 h -49.18"
         style="fill:#051c2e;fill-opacity:1;fill-rule:nonzero;stroke:none"
         id="path16" /><path
         d="m 1212.65,282.742 -103.56,142.5 v -142.5 h -46.43 v 224.16 h 43.38 l 100.19,-138.015 v 138.015 h 46.43 v -224.16 h -40.01"
         style="fill:#051c2e;fill-opacity:1;fill-rule:nonzero;stroke:none"
         id="path18" /><path
         d="m 1295.09,282.742 v 224.16 h 47.04 v -224.16 h -47.04"
         style="fill:#051c2e;fill-opacity:1;fill-rule:nonzero;stroke:none"
         id="path20" /><path
         d="m 1458.84,279.543 c -32.38,0 -65.07,11.848 -90.73,35.867 l 27.8,34.903 c 19.24,-16.653 39.4,-27.219 63.85,-27.219 19.23,0 30.85,8.004 30.85,21.133 v 0.64 c 0,12.488 -7.34,18.891 -43.08,28.5 -43.07,11.528 -70.87,24.02 -70.87,68.528 v 0.636 c 0,40.676 31.16,67.574 74.84,67.574 31.17,0 57.74,-10.25 79.43,-28.5 l -24.44,-37.148 c -18.94,13.77 -37.57,22.094 -55.59,22.094 -18.03,0 -27.5,-8.641 -27.5,-19.531 v -0.645 c 0,-14.727 9.17,-19.531 46.13,-29.457 43.38,-11.848 67.81,-28.18 67.81,-67.246 v -0.641 c 0,-44.511 -32.38,-69.488 -78.5,-69.488"
         style="fill:#051c2e;fill-opacity:1;fill-rule:nonzero;stroke:none"
         id="path22" /><path
         d="m 1695.27,282.742 v 89.985 h -86.75 v -89.985 h -47.05 v 224.16 h 47.05 v -88.707 h 86.75 v 88.707 h 47.04 v -224.16 h -47.04"
         style="fill:#051c2e;fill-opacity:1;fill-rule:nonzero;stroke:none"
         id="path24" /><path
         d="m 1981.89,282.742 v 89.985 h -86.75 v -89.985 h -47.04 v 224.16 h 47.04 v -88.707 h 86.75 v 88.707 h 47.05 v -224.16 h -47.05"
         style="fill:#051c2e;fill-opacity:1;fill-rule:nonzero;stroke:none"
         id="path26" /><path
         d="m 2074.59,282.742 v 224.16 h 161.29 v -43.871 h -114.56 v -45.472 h 100.81 v -43.868 h -100.81 v -47.078 h 105.37 v -43.871 h -152.1"
         style="fill:#051c2e;fill-opacity:1;fill-rule:nonzero;stroke:none"
         id="path28" /><path
         d="m 2352.58,449.262 -28.41,-72.692 h 56.82 z m 64.76,-166.52 -19.55,50.278 h -90.43 l -19.55,-50.278 h -47.95 l 91.64,225.762 h 43.38 l 91.64,-225.762 h -49.18"
         style="fill:#051c2e;fill-opacity:1;fill-rule:nonzero;stroke:none"
         id="path30" /><path
         d="m 2610.15,430.371 c 0,21.133 -14.06,32.02 -36.97,32.02 h -46.73 v -64.364 h 47.65 c 22.91,0 36.05,12.809 36.05,31.703 z m -0.91,-147.629 -45.83,71.735 h -36.96 v -71.735 h -47.05 v 224.16 h 97.76 c 50.4,0 80.64,-27.859 80.64,-73.972 v -0.641 c 0,-36.187 -18.63,-58.922 -45.82,-69.488 l 52.24,-80.059 h -54.98"
         style="fill:#051c2e;fill-opacity:1;fill-rule:nonzero;stroke:none"
         id="path32" /><path
         d="M 2774.93,461.43 V 282.742 h -47.04 V 461.43 h -59.71 v 45.472 h 166.47 V 461.43 h -59.72"
         style="fill:#051c2e;fill-opacity:1;fill-rule:nonzero;stroke:none"
         id="path34" /><path
         d="m 749.137,154.094 h -84.965 v -40.77 h 75.355 V 89.4063 H 664.172 V 28.5664 H 637.91 V 178 h 111.227 v -23.906"
         style="fill:#051c2e;fill-opacity:1;fill-rule:nonzero;stroke:none"
         id="path36" /><path
         d="m 920.766,156.438 c -29.672,0 -50.379,-23.692 -50.379,-52.938 0,-29.25 21.133,-53.3711 50.808,-53.3711 29.668,0 50.375,23.6914 50.375,52.9411 0,29.246 -21.132,53.368 -50.804,53.368 z m 0,-130.4302 c -45.899,0 -77.918,34.7969 -77.918,77.0622 0,42.274 32.445,77.5 78.347,77.5 45.895,0 77.914,-34.804 77.914,-77.07 0,-42.2656 -32.445,-77.4922 -78.343,-77.4922"
         style="fill:#051c2e;fill-opacity:1;fill-rule:nonzero;stroke:none"
         id="path38" /><path
         d="m 1231.16,93.2539 c 0,-44.6172 -25.19,-67.0391 -64.26,-67.0391 -38.85,0 -63.62,22.4219 -63.62,65.7618 V 178 h 26.26 V 93.043 c 0,-27.7578 14.3,-42.6992 37.79,-42.6992 23.27,0 37.57,14.0937 37.57,41.6328 V 178 h 26.26 V 93.2539"
         style="fill:#051c2e;fill-opacity:1;fill-rule:nonzero;stroke:none"
         id="path40" /><path
         d="m 1449.9,178 h 25.84 V 28.5664 h -21.99 L 1371.34,134.875 V 28.5664 h -25.83 V 178 h 24.34 L 1449.9,74.6797 V 178"
         style="fill:#051c2e;fill-opacity:1;fill-rule:nonzero;stroke:none"
         id="path42" /><path
         d="m 1649.95,154.094 h -29.46 V 52.4727 h 29.46 c 31.38,0 51.88,21.1328 51.88,50.5973 0,29.461 -20.5,51.024 -51.88,51.024 z m 0,-125.5276 h -55.72 V 178 h 55.72 c 46.96,0 79.42,-32.234 79.42,-74.5 0,-42.2656 -32.46,-74.9336 -79.42,-74.9336"
         style="fill:#051c2e;fill-opacity:1;fill-rule:nonzero;stroke:none"
         id="path44" /><path
         d="m 1890.3,147.688 -25.62,-59.7739 h 51.45 z m 78.35,-119.1216 h -27.75 l -15.16,36.0742 h -70.66 l -15.37,-36.0742 h -26.91 l 65.76,150.5076 h 24.33 l 65.76,-150.5076"
         style="fill:#051c2e;fill-opacity:1;fill-rule:nonzero;stroke:none"
         id="path46" /><path
         d="m 2109.36,28.5664 h -26.48 V 153.668 h -47.39 V 178 h 121.26 v -24.332 h -47.39 V 28.5664"
         style="fill:#051c2e;fill-opacity:1;fill-rule:nonzero;stroke:none"
         id="path48" /><path
         d="M 2286.96,178 V 28.5664 h -26.25 V 178 h 26.25"
         style="fill:#051c2e;fill-opacity:1;fill-rule:nonzero;stroke:none"
         id="path50" /><path
         d="m 2472.9,156.438 c -29.68,0 -50.38,-23.692 -50.38,-52.938 0,-29.25 21.13,-53.3711 50.8,-53.3711 29.68,0 50.39,23.6914 50.39,52.9411 0,29.246 -21.14,53.368 -50.81,53.368 z m 0,-130.4302 c -45.9,0 -77.92,34.7969 -77.92,77.0622 0,42.274 32.45,77.5 78.34,77.5 45.91,0 77.93,-34.804 77.93,-77.07 0,-42.2656 -32.45,-77.4922 -78.35,-77.4922"
         style="fill:#051c2e;fill-opacity:1;fill-rule:nonzero;stroke:none"
         id="path52" /><path
         d="m 2749.05,178 h 25.83 V 28.5664 h -21.99 l -82.4,106.3086 V 28.5664 h -25.83 V 178 h 24.33 L 2749.05,74.6797 V 178"
         style="fill:#051c2e;fill-opacity:1;fill-rule:nonzero;stroke:none"
         id="path54" /><path
         d="m 267.848,522.156 c -140.547,0 -254.5042,-113.961 -254.5042,-254.547 0,-140.586 113.9572,-254.5777 254.5042,-254.5777 140.625,0 254.597,113.9917 254.597,254.5777 0,140.586 -113.972,254.547 -254.597,254.547"
         style="fill:#ffffff;fill-opacity:1;fill-rule:nonzero;stroke:none"
         id="path56" /><path
         d="m 285.957,487.391 c -0.875,-0.078 -1.57,-0.278 -1.816,-0.688 -1.215,-1.84 -1.215,-10.406 -1.215,-10.406 l -0.035,-90.242 v -15.168 c 0.062,-0.574 0.234,-0.977 0.445,-1.149 0.172,-0.129 0.57,-0.129 1.051,0 l 4.312,3.356 1.711,1.344 c 95.973,80.96 271.442,-74.227 5.778,-275.4302 l -0.899,-0.5586 0.109,0.0391 c 0,0 -10.011,-7.168 -11.257,-9.0039 -1.215,-1.8047 -1.215,-26.7461 -1.215,-26.7461 v -0.7735 c 0,0 0,-11.121 1.215,-12.9179 0.211,-0.3047 0.699,-0.4805 1.425,-0.6367 105.45,9.1718 202.422,111.6718 202.422,219.4918 0,115.911 -96.726,210.172 -202.031,219.489"
         style="fill:#d91920;fill-opacity:1;fill-rule:nonzero;stroke:none"
         id="path58" /><path
         d="m 240.172,98.4883 0.101,-0.0391 -0.863,0.5586 C -26.2461,300.211 149.23,455.398 245.141,374.438 l 1.691,-1.344 4.352,-3.356 c 0.527,-0.129 0.863,-0.129 1.125,0 0.136,0.172 0.347,0.575 0.464,1.149 v 15.168 l -0.039,90.242 c 0,0 0,8.566 -1.234,10.406 -0.316,0.399 -0.934,0.61 -1.852,0.66 C 144.32,478.074 47.6484,383.813 47.6484,267.902 c 0,-107.82 96.9066,-210.32 202.3906,-219.4918 0.652,0.1562 1.172,0.332 1.461,0.6367 1.234,1.7969 1.234,12.9179 1.234,12.9179 v 0.7422 c 0,0 0,24.9727 -1.234,26.7774 -1.242,1.8359 -11.328,9.0039 -11.328,9.0039"
         style="fill:#d91920;fill-opacity:1;fill-rule:nonzero;stroke:none"
         id="path60" /><path
         d="m 267.848,316.086 v 0 c -74.875,123.664 -246.93,-17.723 0,-194.481 v 0 c 246.941,176.758 74.886,318.145 0,194.481"
         style="fill:#d91920;fill-opacity:1;fill-rule:nonzero;stroke:none"
         id="path62" /><path
         d="m 267.973,28.4609 c -122.274,0 -239.4535,117.1681 -239.4535,239.4411 0,130.555 117.1795,239.493 239.4535,239.493 122.347,0 239.492,-108.938 239.492,-239.493 C 507.465,145.629 390.32,28.4609 267.973,28.4609 Z M 267.848,535.859 C 119.887,535.859 0,415.91 0,267.93 0,119.945 119.887,0.00390625 267.848,0.00390625 415.844,0.00390625 535.781,119.945 535.781,267.93 c 0,147.98 -119.937,267.929 -267.933,267.929"
         style="fill:#d91920;fill-opacity:1;fill-rule:nonzero;stroke:none"
         id="path64" /></g></g></svg>
